<svg width="26" height="25" viewBox="0 0 26 25" fill="none" xmlns="http://www.w3.org/2000/svg">
<path d="M11.948 1C11.8789 1.00055 11.8136 1.01146 11.7606 1.03257C8.16934 2.47665 4.49877 3.94095 1.41589 5.17373C1.1797 5.22268 0.995186 5.45432 1.0001 5.69541V18.7387C0.998094 18.9638 1.15895 19.1809 1.37513 19.2442C4.96311 20.8494 8.60252 22.4929 11.671 23.8745C11.8504 23.9741 12.0877 23.9857 12.258 23.8665L17.6467 21.4373C18.4134 22.3377 19.5556 22.9129 20.826 22.9129C23.125 22.9129 25 21.0381 25 18.7389C25 17.1988 24.1599 15.8508 22.913 15.1276V5.69547C22.9159 5.46128 22.7412 5.23673 22.5136 5.18198L12.1605 1.04082C12.0904 1.00989 12.0172 0.999636 11.948 1ZM11.9562 2.07617L20.9808 5.68744L17.1737 7.21197L8.14913 3.60866L11.9562 2.07617ZM6.73892 4.17134L15.7635 7.78261L11.9564 9.29894L2.93181 5.69564L6.73892 4.17134ZM2.04333 6.46212L11.4345 10.2203V22.6198L2.04333 18.3971V6.46212ZM21.8691 6.46212V14.7041C21.5347 14.6173 21.1866 14.5654 20.8258 14.5654C18.5268 14.5654 16.6518 16.4402 16.6518 18.7394C16.6518 19.3872 16.8023 20.0011 17.0676 20.5492L12.4781 22.6198V10.2203L16.6521 8.54911V11.9566C16.6482 12.2323 16.8981 12.4865 17.1737 12.4865C17.4494 12.4865 17.6994 12.2323 17.6954 11.9566V8.13331L21.8691 6.46212ZM20.8258 15.6087C22.5608 15.6087 23.9561 17.004 23.9561 18.7391C23.9561 20.4741 22.5608 21.8694 20.8258 21.8694C19.0907 21.8694 17.6954 20.4741 17.6954 18.7391C17.6954 17.004 19.0907 15.6087 20.8258 15.6087ZM20.8258 16.3914C20.5375 16.3914 20.3041 16.625 20.3041 16.9131V18.2174H18.9998C18.7115 18.2174 18.4781 18.451 18.4781 18.7391C18.4781 19.0273 18.7117 19.2608 18.9998 19.2608H20.3041V20.5651C20.3041 20.8533 20.5377 21.0868 20.8258 21.0868C21.114 21.0868 21.3475 20.8531 21.3475 20.5651V19.2608H22.6518C22.94 19.2608 23.1735 19.0271 23.1735 18.7391C23.1735 18.4508 22.9398 18.2174 22.6518 18.2174H21.3475V16.9131C21.3475 16.6248 21.1138 16.3914 20.8258 16.3914Z" fill="#7D8588" stroke="#7D8588" stroke-width="0.3"/>
</svg>
