<svg width="22" height="20" viewBox="0 0 22 20" fill="none" xmlns="http://www.w3.org/2000/svg">
<path d="M1.45312 6.75H2.875C2.98672 6.75 3.07812 6.65859 3.07812 6.54688V2.07812H7.54688C7.65859 2.07812 7.75 1.98672 7.75 1.875V0.453125C7.75 0.341406 7.65859 0.25 7.54688 0.25H2.97656C2.02188 0.25 1.25 1.02188 1.25 1.97656V6.54688C1.25 6.65859 1.34141 6.75 1.45312 6.75ZM14.4531 2.07812H18.9219V6.54688C18.9219 6.65859 19.0133 6.75 19.125 6.75H20.5469C20.6586 6.75 20.75 6.65859 20.75 6.54688V1.97656C20.75 1.02188 19.9781 0.25 19.0234 0.25H14.4531C14.3414 0.25 14.25 0.341406 14.25 0.453125V1.875C14.25 1.98672 14.3414 2.07812 14.4531 2.07812ZM7.54688 17.9219H3.07812V13.4531C3.07812 13.3414 2.98672 13.25 2.875 13.25H1.45312C1.34141 13.25 1.25 13.3414 1.25 13.4531V18.0234C1.25 18.9781 2.02188 19.75 2.97656 19.75H7.54688C7.65859 19.75 7.75 19.6586 7.75 19.5469V18.125C7.75 18.0133 7.65859 17.9219 7.54688 17.9219ZM20.5469 13.25H19.125C19.0133 13.25 18.9219 13.3414 18.9219 13.4531V17.9219H14.4531C14.3414 17.9219 14.25 18.0133 14.25 18.125V19.5469C14.25 19.6586 14.3414 19.75 14.4531 19.75H19.0234C19.9781 19.75 20.75 18.9781 20.75 18.0234V13.4531C20.75 13.3414 20.6586 13.25 20.5469 13.25ZM20.9531 9.08594H1.04688C0.935156 9.08594 0.84375 9.17734 0.84375 9.28906V10.7109C0.84375 10.8227 0.935156 10.9141 1.04688 10.9141H20.9531C21.0648 10.9141 21.1562 10.8227 21.1562 10.7109V9.28906C21.1562 9.17734 21.0648 9.08594 20.9531 9.08594Z" fill="#040003"/>
</svg>
