<svg width="18" height="26" viewBox="0 0 18 26" fill="none" xmlns="http://www.w3.org/2000/svg">
<path d="M2.27583 5.19978C4.05625 3.47117 6.46636 2.50053 8.97903 2.50053C11.4917 2.50053 13.9018 3.47117 15.6822 5.19978C15.8773 5.38995 16.1614 5.46419 16.4278 5.39464C16.6942 5.32495 16.9024 5.12215 16.9737 4.86242C17.045 4.60269 16.9689 4.3255 16.774 4.13546C14.7063 2.12733 11.907 1 8.98869 1C6.07033 1 3.27079 2.12736 1.2034 4.13546C1.02358 4.32511 0.957183 4.59189 1.02759 4.84078C1.09799 5.08983 1.29531 5.2856 1.54941 5.35866C1.80351 5.43173 2.07812 5.37171 2.27583 5.19978Z" fill="#040003"/>
<path d="M14.0146 7.56167C14.0146 7.76174 13.9324 7.95348 13.7861 8.09389C13.6428 8.23079 13.4504 8.30738 13.2499 8.30738C13.0494 8.30738 12.8568 8.2308 12.7136 8.0939C11.7267 7.136 10.3908 6.59831 8.99814 6.59831C7.60545 6.59831 6.26963 7.136 5.28265 8.0939C5.08761 8.28407 4.80331 8.35831 4.53692 8.28876C4.27054 8.21907 4.06253 8.01627 3.99119 7.75654C3.91972 7.49681 3.99587 7.21962 4.19091 7.02958C5.46521 5.79228 7.19008 5.09764 8.98849 5.09764C10.7869 5.09764 12.5118 5.79232 13.7861 7.02958C13.9324 7.16987 14.0146 7.3616 14.0146 7.56167Z" fill="#040003"/>
<path d="M7.88644 20.7139H10.0842C10.4888 20.7139 10.8168 21.0337 10.8168 21.4282C10.8168 21.8228 10.4888 22.1424 10.0842 22.1424H7.88644C7.48192 22.1424 7.15385 21.8228 7.15385 21.4282C7.15385 21.0337 7.48192 20.7139 7.88644 20.7139Z" fill="#040003"/>
<path fill-rule="evenodd" clip-rule="evenodd" d="M6.45347 10.6H12.074C12.8673 10.6008 13.6279 10.9083 14.1888 11.4552C14.7497 12.0021 15.0651 12.7437 15.0659 13.5171V22.0829C15.0651 22.8563 14.7497 23.5979 14.1888 24.1448C13.6279 24.6917 12.8673 24.9992 12.074 25H6.45347C5.66017 24.9992 4.89957 24.6917 4.33867 24.1448C3.77776 23.5979 3.46236 22.8563 3.46154 22.0829V13.5171C3.46238 12.7437 3.77776 12.0021 4.33867 11.4552C4.89957 10.9083 5.66017 10.6008 6.45347 10.6ZM13.1537 23.1353C13.4399 22.856 13.6008 22.4774 13.6008 22.0826V13.5168C13.6008 13.122 13.4399 12.7433 13.1537 12.4641C12.8673 12.1851 12.479 12.0283 12.074 12.0283H6.45347C6.04855 12.0283 5.66015 12.1851 5.37377 12.4641C5.0876 12.7434 4.92673 13.122 4.92673 13.5168V22.0826C4.92673 22.4774 5.0876 22.856 5.37377 23.1353C5.66017 23.4143 6.04853 23.5711 6.45347 23.5711H12.074C12.4789 23.5711 12.8673 23.4143 13.1537 23.1353Z" fill="#040003"/>
<path d="M2.27583 5.19978C4.05625 3.47117 6.46636 2.50053 8.97903 2.50053C11.4917 2.50053 13.9018 3.47117 15.6822 5.19978C15.8773 5.38995 16.1614 5.46419 16.4278 5.39464C16.6942 5.32495 16.9024 5.12215 16.9737 4.86242C17.045 4.60269 16.9689 4.3255 16.774 4.13546C14.7063 2.12733 11.907 1 8.98869 1C6.07033 1 3.27079 2.12736 1.2034 4.13546C1.02358 4.32511 0.957183 4.59189 1.02759 4.84078C1.09799 5.08983 1.29531 5.2856 1.54941 5.35866C1.80351 5.43173 2.07812 5.37171 2.27583 5.19978Z" stroke="#040003" stroke-width="0.3"/>
<path d="M14.0146 7.56167C14.0146 7.76174 13.9324 7.95348 13.7861 8.09389C13.6428 8.23079 13.4504 8.30738 13.2499 8.30738C13.0494 8.30738 12.8568 8.2308 12.7136 8.0939C11.7267 7.136 10.3908 6.59831 8.99814 6.59831C7.60545 6.59831 6.26963 7.136 5.28265 8.0939C5.08761 8.28407 4.80331 8.35831 4.53692 8.28876C4.27054 8.21907 4.06253 8.01627 3.99119 7.75654C3.91972 7.49681 3.99587 7.21962 4.19091 7.02958C5.46521 5.79228 7.19008 5.09764 8.98849 5.09764C10.7869 5.09764 12.5118 5.79232 13.7861 7.02958C13.9324 7.16987 14.0146 7.3616 14.0146 7.56167Z" stroke="#040003" stroke-width="0.3"/>
<path d="M7.88644 20.7139H10.0842C10.4888 20.7139 10.8168 21.0337 10.8168 21.4282C10.8168 21.8228 10.4888 22.1424 10.0842 22.1424H7.88644C7.48192 22.1424 7.15385 21.8228 7.15385 21.4282C7.15385 21.0337 7.48192 20.7139 7.88644 20.7139Z" stroke="#040003" stroke-width="0.3"/>
<path fill-rule="evenodd" clip-rule="evenodd" d="M6.45347 10.6H12.074C12.8673 10.6008 13.6279 10.9083 14.1888 11.4552C14.7497 12.0021 15.0651 12.7437 15.0659 13.5171V22.0829C15.0651 22.8563 14.7497 23.5979 14.1888 24.1448C13.6279 24.6917 12.8673 24.9992 12.074 25H6.45347C5.66017 24.9992 4.89957 24.6917 4.33867 24.1448C3.77776 23.5979 3.46236 22.8563 3.46154 22.0829V13.5171C3.46238 12.7437 3.77776 12.0021 4.33867 11.4552C4.89957 10.9083 5.66017 10.6008 6.45347 10.6ZM13.1537 23.1353C13.4399 22.856 13.6008 22.4774 13.6008 22.0826V13.5168C13.6008 13.122 13.4399 12.7433 13.1537 12.4641C12.8673 12.1851 12.479 12.0283 12.074 12.0283H6.45347C6.04855 12.0283 5.66015 12.1851 5.37377 12.4641C5.0876 12.7434 4.92673 13.122 4.92673 13.5168V22.0826C4.92673 22.4774 5.0876 22.856 5.37377 23.1353C5.66017 23.4143 6.04853 23.5711 6.45347 23.5711H12.074C12.4789 23.5711 12.8673 23.4143 13.1537 23.1353Z" stroke="#040003" stroke-width="0.3"/>
</svg>
