<svg width="22" height="24" viewBox="0 0 22 24" fill="none" xmlns="http://www.w3.org/2000/svg">
<path fill-rule="evenodd" clip-rule="evenodd" d="M20.5892 9.94876L13.6261 8.3822L13.6259 1.59465C13.6259 1.29286 13.3647 1.05494 13.0733 1.09537L1.4655 2.69391C1.20688 2.70798 1 2.92892 1 3.19984V22.4022C1 22.6805 1.22048 22.9091 1.49078 22.9091H20.5089C20.7792 22.9091 20.9997 22.6805 20.9997 22.4022L21 10.4476C21 10.1985 20.8231 9.98879 20.589 9.94835L20.5892 9.94876ZM8.21409 21.8936H6.41492L6.41509 18.3213H8.21427L8.21409 21.8936ZM12.6462 21.8936H9.19302L9.19319 17.8154C9.19319 17.5342 8.97358 17.3067 8.70242 17.3067H5.92431C5.65577 17.3067 5.43527 17.5343 5.43527 17.8154V21.8936H1.98039V3.6427L12.6462 2.17286L12.6462 21.8936ZM20.0203 21.8936H17.3131V20.0027C17.3131 19.335 16.3332 19.335 16.3332 20.0027V21.8936H13.6258V9.41829L20.0205 10.8571L20.0203 21.8936ZM16.8234 17.9813C17.3669 17.9813 17.3449 17.3477 17.3219 16.6858C17.3172 16.5511 17.3125 16.4151 17.3125 16.2831C17.3125 15.6145 16.3327 15.6145 16.3327 16.2831C16.3327 16.4149 16.3279 16.5506 16.3233 16.6851C16.3003 17.3472 16.2783 17.9813 16.8234 17.9813ZM17.3219 12.9681C17.3449 13.629 17.3669 14.2626 16.8234 14.2626C16.2783 14.2626 16.3003 13.6287 16.3233 12.9675C16.3279 12.8332 16.3327 12.6977 16.3327 12.5663C16.3327 11.8986 17.3125 11.8986 17.3125 12.5663C17.3125 12.6979 17.3172 12.8335 17.3219 12.968V12.968V12.9681ZM5.92414 15.6203H8.70224C8.97253 15.6203 9.19302 15.3947 9.19302 15.1134V12.236C9.19302 11.9559 8.97254 11.7301 8.70224 11.7301H5.92414C5.65559 11.7301 5.4351 11.9557 5.4351 12.236V15.1134C5.4351 15.3936 5.6554 15.6203 5.92414 15.6203ZM6.41491 12.7429H8.21307V14.6066H6.41491V12.7429ZM8.70224 10.0431H5.92414C5.6554 10.0431 5.4351 9.81551 5.4351 9.53718V6.65691C5.4351 6.37859 5.65559 6.15098 5.92414 6.15098H8.70224C8.97254 6.15098 9.19302 6.37948 9.19302 6.65691V9.53718C9.19302 9.8155 8.97253 10.0431 8.70224 10.0431ZM8.21307 7.16664H6.41491V9.02851H8.21307V7.16664Z" fill="#7D8588"/>
<path d="M13.6261 8.3822L13.4761 8.38221L13.4761 8.50221L13.5932 8.52855L13.6261 8.3822ZM20.5892 9.94876L20.5563 10.0951L20.8722 10.1662L20.7221 9.87925L20.5892 9.94876ZM13.6259 1.59465H13.4759V1.59466L13.6259 1.59465ZM13.0733 1.09537L13.0938 1.24397L13.0939 1.24395L13.0733 1.09537ZM1.4655 2.69391L1.47368 2.84419L1.48596 2.8425L1.4655 2.69391ZM20.9997 22.4022L20.8497 22.4022V22.4022H20.9997ZM21 10.4476L21.15 10.4476V10.4476H21ZM20.589 9.94835L20.6145 9.80054L20.3154 9.74885L20.4561 10.0179L20.589 9.94835ZM6.41492 21.8936L6.26492 21.8936L6.26491 22.0436H6.41492V21.8936ZM8.21409 21.8936V22.0436H8.36409L8.36409 21.8936L8.21409 21.8936ZM6.41509 18.3213V18.1713H6.2651L6.26509 18.3213L6.41509 18.3213ZM8.21427 18.3213L8.36427 18.3213L8.36428 18.1713H8.21427V18.3213ZM9.19302 21.8936L9.04302 21.8936L9.04301 22.0436H9.19302V21.8936ZM12.6462 21.8936V22.0436H12.7962V21.8936H12.6462ZM9.19319 17.8154L9.34319 17.8154V17.8154H9.19319ZM5.43527 21.8936V22.0436H5.58527V21.8936H5.43527ZM1.98039 21.8936H1.83039V22.0436H1.98039V21.8936ZM1.98039 3.6427L1.95991 3.49411L1.83039 3.51196V3.6427H1.98039ZM12.6462 2.17286H12.7962V2.00077L12.6257 2.02426L12.6462 2.17286ZM17.3131 21.8936H17.1631V22.0436H17.3131V21.8936ZM20.0203 21.8936V22.0436H20.1703L20.1703 21.8936L20.0203 21.8936ZM16.3332 21.8936V22.0436H16.4832V21.8936H16.3332ZM13.6258 21.8936H13.4758V22.0436H13.6258V21.8936ZM13.6258 9.41829L13.6587 9.27195L13.4758 9.23079V9.41829H13.6258ZM20.0205 10.8571L20.1705 10.8571L20.1705 10.7371L20.0534 10.7107L20.0205 10.8571ZM17.3219 16.6858L17.4718 16.6806V16.6806L17.3219 16.6858ZM16.3233 16.6851L16.4732 16.6903L16.3233 16.6851ZM17.3219 12.9681H17.1718L17.172 12.9733L17.3219 12.9681ZM16.3233 12.9675L16.1734 12.9622L16.3233 12.9675ZM17.3219 12.968H17.472L17.4718 12.9628L17.3219 12.968ZM8.21307 12.7429H8.36307V12.5929H8.21307V12.7429ZM6.41491 12.7429V12.5929H6.26491V12.7429H6.41491ZM8.21307 14.6066V14.7566H8.36307V14.6066H8.21307ZM6.41491 14.6066H6.26491V14.7566H6.41491V14.6066ZM6.41491 7.16664V7.01664H6.26491V7.16664H6.41491ZM8.21307 7.16664H8.36307V7.01664H8.21307V7.16664ZM6.41491 9.02851H6.26491V9.17851H6.41491V9.02851ZM8.21307 9.02851V9.17851H8.36307V9.02851H8.21307ZM13.5932 8.52855L20.5563 10.0951L20.6221 9.80242L13.659 8.23586L13.5932 8.52855ZM13.4759 1.59466L13.4761 8.38221L13.7761 8.3822L13.7759 1.59465L13.4759 1.59466ZM13.0939 1.24395C13.2893 1.21684 13.4759 1.37789 13.4759 1.59465H13.7759C13.7759 1.20783 13.4401 0.893038 13.0527 0.946796L13.0939 1.24395ZM1.48596 2.8425L13.0938 1.24397L13.0529 0.946774L1.44504 2.54531L1.48596 2.8425ZM1.15 3.19984C1.15 3.00534 1.29779 2.85326 1.47365 2.84368L1.45735 2.54413C1.11596 2.56271 0.85 2.85249 0.85 3.19984H1.15ZM1.15 22.4022V3.19984H0.85V22.4022H1.15ZM1.49078 22.7591C1.308 22.7591 1.15 22.6024 1.15 22.4022H0.85C0.85 22.7586 1.13296 23.0591 1.49078 23.0591V22.7591ZM20.5089 22.7591H1.49078V23.0591H20.5089V22.7591ZM20.8497 22.4022C20.8497 22.6025 20.6916 22.7591 20.5089 22.7591V23.0591C20.8667 23.0591 21.1497 22.7586 21.1497 22.4022H20.8497ZM20.85 10.4476L20.8497 22.4022L21.1497 22.4022L21.15 10.4476L20.85 10.4476ZM20.5635 10.0962C20.7237 10.1238 20.85 10.2695 20.85 10.4476H21.15C21.15 10.1275 20.9225 9.85374 20.6145 9.80054L20.5635 10.0962ZM20.7221 9.87925L20.7219 9.87884L20.4561 10.0179L20.4563 10.0183L20.7221 9.87925ZM6.41492 22.0436H8.21409V21.7436H6.41492V22.0436ZM6.26509 18.3213L6.26492 21.8936L6.56492 21.8936L6.56509 18.3213L6.26509 18.3213ZM8.21427 18.1713H6.41509V18.4713H8.21427V18.1713ZM8.36409 21.8936L8.36427 18.3213L8.06427 18.3213L8.06409 21.8936L8.36409 21.8936ZM9.19302 22.0436H12.6462V21.7436H9.19302V22.0436ZM9.04319 17.8154L9.04302 21.8936L9.34302 21.8936L9.34319 17.8154L9.04319 17.8154ZM8.70242 17.4567C8.88576 17.4567 9.04319 17.6119 9.04319 17.8154H9.34319C9.34319 17.4564 9.06141 17.1567 8.70242 17.1567V17.4567ZM5.92431 17.4567H8.70242V17.1567H5.92431V17.4567ZM5.58527 17.8154C5.58527 17.6119 5.74379 17.4567 5.92431 17.4567V17.1567C5.56774 17.1567 5.28527 17.4568 5.28527 17.8154H5.58527ZM5.58527 21.8936V17.8154H5.28527V21.8936H5.58527ZM1.98039 22.0436H5.43527V21.7436H1.98039V22.0436ZM1.83039 3.6427V21.8936H2.13039V3.6427H1.83039ZM12.6257 2.02426L1.95991 3.49411L2.00087 3.7913L12.6666 2.32145L12.6257 2.02426ZM12.7962 21.8936L12.7962 2.17286H12.4962L12.4962 21.8936H12.7962ZM17.3131 22.0436H20.0203V21.7436H17.3131V22.0436ZM17.1631 20.0027V21.8936H17.4631V20.0027H17.1631ZM16.4832 20.0027C16.4832 19.8753 16.5286 19.7914 16.5872 19.7381C16.6483 19.6826 16.7335 19.6519 16.8232 19.6519C16.9128 19.6519 16.998 19.6826 17.0591 19.7381C17.1177 19.7914 17.1631 19.8753 17.1631 20.0027H17.4631C17.4631 19.7962 17.3859 19.6298 17.2608 19.5161C17.1383 19.4047 16.9785 19.3519 16.8232 19.3519C16.6678 19.3519 16.5081 19.4047 16.3855 19.5161C16.2604 19.6298 16.1832 19.7962 16.1832 20.0027H16.4832ZM16.4832 21.8936V20.0027H16.1832V21.8936H16.4832ZM13.6258 22.0436H16.3332V21.7436H13.6258V22.0436ZM13.4758 9.41829V21.8936H13.7758V9.41829H13.4758ZM20.0534 10.7107L13.6587 9.27195L13.5929 9.56463L19.9875 11.0034L20.0534 10.7107ZM20.1703 21.8936L20.1705 10.8571L19.8705 10.8571L19.8703 21.8936L20.1703 21.8936ZM17.172 16.691C17.1837 17.0298 17.1929 17.3295 17.1395 17.5458C17.1135 17.6511 17.0761 17.7202 17.031 17.7628C16.9893 17.802 16.9278 17.8313 16.8234 17.8313V18.1313C16.9908 18.1313 17.1303 18.0813 17.2367 17.9811C17.3395 17.8842 17.3972 17.7535 17.4307 17.6177C17.4964 17.3517 17.483 17.0038 17.4718 16.6806L17.172 16.691ZM17.1625 16.2831C17.1625 16.4182 17.1673 16.5567 17.172 16.691L17.4718 16.6806C17.4671 16.5454 17.4625 16.4121 17.4625 16.2831H17.1625ZM16.4827 16.2831C16.4827 16.1555 16.5281 16.0713 16.5867 16.018C16.6478 15.9623 16.733 15.9317 16.8226 15.9317C16.9121 15.9317 16.9973 15.9623 17.0584 16.018C17.1171 16.0713 17.1625 16.1555 17.1625 16.2831H17.4625C17.4625 16.0765 17.3854 15.9099 17.2603 15.7961C17.1377 15.6845 16.978 15.6317 16.8226 15.6317C16.6672 15.6317 16.5074 15.6845 16.3848 15.7961C16.2597 15.9099 16.1827 16.0765 16.1827 16.2831H16.4827ZM16.4732 16.6903C16.4778 16.5562 16.4827 16.4179 16.4827 16.2831H16.1827C16.1827 16.4118 16.1781 16.5449 16.1734 16.6799L16.4732 16.6903ZM16.8234 17.8313C16.7186 17.8313 16.6567 17.8019 16.6148 17.7626C16.5695 17.7199 16.532 17.6507 16.5059 17.5454C16.4523 17.329 16.4614 17.0292 16.4732 16.6903L16.1734 16.6799C16.1622 17.0032 16.1488 17.3514 16.2147 17.6175C16.2484 17.7535 16.3062 17.8842 16.4093 17.9811C16.516 18.0814 16.6557 18.1313 16.8234 18.1313V17.8313ZM16.8234 14.4126C16.9908 14.4126 17.1303 14.3627 17.2367 14.2625C17.3396 14.1656 17.3972 14.035 17.4307 13.8992C17.4964 13.6333 17.483 13.2856 17.4718 12.9629L17.172 12.9733C17.1837 13.3115 17.1929 13.6111 17.1395 13.8272C17.1135 13.9325 17.0761 14.0016 17.031 14.0441C16.9893 14.0834 16.9278 14.1126 16.8234 14.1126V14.4126ZM16.1734 12.9622C16.1622 13.2851 16.1488 13.633 16.2147 13.8991C16.2484 14.035 16.3062 14.1656 16.4093 14.2626C16.516 14.3628 16.6557 14.4126 16.8234 14.4126V14.1126C16.7185 14.1126 16.6566 14.0833 16.6148 14.0439C16.5694 14.0013 16.532 13.9322 16.5059 13.8269C16.4523 13.6107 16.4614 13.3111 16.4732 12.9727L16.1734 12.9622ZM16.1827 12.5663C16.1827 12.6947 16.1781 12.8275 16.1734 12.9622L16.4732 12.9727C16.4778 12.8389 16.4827 12.7008 16.4827 12.5663H16.1827ZM17.4625 12.5663C17.4625 12.3598 17.3853 12.1934 17.2602 12.0797C17.1377 11.9683 16.9779 11.9155 16.8226 11.9155C16.6672 11.9155 16.5075 11.9683 16.3849 12.0797C16.2598 12.1934 16.1827 12.3598 16.1827 12.5663H16.4827C16.4827 12.4389 16.528 12.355 16.5866 12.3017C16.6477 12.2462 16.7329 12.2155 16.8226 12.2155C16.9122 12.2155 16.9974 12.2462 17.0585 12.3017C17.1171 12.355 17.1625 12.4389 17.1625 12.5663H17.4625ZM17.4718 12.9628C17.4671 12.8278 17.4625 12.6948 17.4625 12.5663H17.1625C17.1625 12.701 17.1673 12.8392 17.172 12.9732L17.4718 12.9628ZM17.4719 12.968V12.968H17.1719V12.968H17.4719ZM17.4719 12.9681V12.968H17.1719V12.9681H17.4719ZM8.70224 15.4703H5.92414V15.7703H8.70224V15.4703ZM9.04302 15.1134C9.04302 15.316 8.88556 15.4703 8.70224 15.4703V15.7703C9.0595 15.7703 9.34302 15.4733 9.34302 15.1134H9.04302ZM9.04302 12.236V15.1134H9.34302V12.236H9.04302ZM8.70224 11.8801C8.88571 11.8801 9.04302 12.0347 9.04302 12.236H9.34302C9.34302 11.8771 9.05936 11.5801 8.70224 11.5801V11.8801ZM5.92414 11.8801H8.70224V11.5801H5.92414V11.8801ZM5.5851 12.236C5.5851 12.0342 5.74272 11.8801 5.92414 11.8801V11.5801C5.56846 11.5801 5.2851 11.8772 5.2851 12.236H5.5851ZM5.5851 15.1134V12.236H5.2851V15.1134H5.5851ZM5.92414 15.4703C5.74296 15.4703 5.5851 15.3155 5.5851 15.1134H5.2851C5.2851 15.4716 5.56785 15.7703 5.92414 15.7703V15.4703ZM8.21307 12.5929H6.41491V12.8929H8.21307V12.5929ZM8.36307 14.6066V12.7429H8.06307V14.6066H8.36307ZM6.41491 14.7566H8.21307V14.4566H6.41491V14.7566ZM6.26491 12.7429V14.6066H6.56491V12.7429H6.26491ZM5.92414 10.1931H8.70224V9.89311H5.92414V10.1931ZM5.2851 9.53718C5.2851 9.89357 5.56786 10.1931 5.92414 10.1931V9.89311C5.74295 9.89311 5.5851 9.73745 5.5851 9.53718H5.2851ZM5.2851 6.65691V9.53718H5.5851V6.65691H5.2851ZM5.92414 6.00098C5.56808 6.00098 5.2851 6.30049 5.2851 6.65691H5.5851C5.5851 6.45669 5.7431 6.30098 5.92414 6.30098V6.00098ZM8.70224 6.00098H5.92414V6.30098H8.70224V6.00098ZM9.34302 6.65691C9.34302 6.30121 9.05988 6.00098 8.70224 6.00098V6.30098C8.88519 6.30098 9.04302 6.45775 9.04302 6.65691H9.34302ZM9.34302 9.53718V6.65691H9.04302V9.53718H9.34302ZM8.70224 10.1931C9.0597 10.1931 9.34302 9.89395 9.34302 9.53718H9.04302C9.04302 9.73705 8.88536 9.89311 8.70224 9.89311V10.1931ZM6.41491 7.31664H8.21307V7.01664H6.41491V7.31664ZM6.56491 9.02851V7.16664H6.26491V9.02851H6.56491ZM8.21307 8.87851H6.41491V9.17851H8.21307V8.87851ZM8.06307 7.16664V9.02851H8.36307V7.16664H8.06307Z" fill="#7D8588"/>
</svg>
