<svg width="24" height="24" viewBox="0 0 24 24" fill="none" xmlns="http://www.w3.org/2000/svg">
<path d="M12 0.625C5.71836 0.625 0.625 5.71836 0.625 12C0.625 18.2816 5.71836 23.375 12 23.375C18.2816 23.375 23.375 18.2816 23.375 12C23.375 5.71836 18.2816 0.625 12 0.625ZM12 21.4453C6.78477 21.4453 2.55469 17.2152 2.55469 12C2.55469 6.78477 6.78477 2.55469 12 2.55469C17.2152 2.55469 21.4453 6.78477 21.4453 12C21.4453 17.2152 17.2152 21.4453 12 21.4453Z" fill="black"/>
<path d="M14.8336 7.04121C14.0719 6.37344 13.0664 6.00781 12 6.00781C10.9336 6.00781 9.92813 6.37598 9.16641 7.04121C8.37422 7.73438 7.9375 8.66621 7.9375 9.66406V9.85703C7.9375 9.96875 8.02891 10.0602 8.14063 10.0602H9.35938C9.47109 10.0602 9.5625 9.96875 9.5625 9.85703V9.66406C9.5625 8.54434 10.6568 7.63281 12 7.63281C13.3432 7.63281 14.4375 8.54434 14.4375 9.66406C14.4375 10.4537 13.8789 11.1773 13.0131 11.51C12.4748 11.7156 12.0178 12.0762 11.6902 12.5484C11.3576 13.0309 11.185 13.6098 11.185 14.1963V14.7422C11.185 14.8539 11.2764 14.9453 11.3881 14.9453H12.6068C12.7186 14.9453 12.81 14.8539 12.81 14.7422V14.1658C12.8113 13.9193 12.8868 13.679 13.0268 13.4761C13.1667 13.2731 13.3646 13.1171 13.5945 13.0283C15.0926 12.452 16.06 11.1316 16.06 9.66406C16.0625 8.66621 15.6258 7.73438 14.8336 7.04121ZM10.9844 17.5859C10.9844 17.8553 11.0914 18.1136 11.2818 18.3041C11.4723 18.4946 11.7306 18.6016 12 18.6016C12.2694 18.6016 12.5277 18.4946 12.7182 18.3041C12.9086 18.1136 13.0156 17.8553 13.0156 17.5859C13.0156 17.3166 12.9086 17.0582 12.7182 16.8678C12.5277 16.6773 12.2694 16.5703 12 16.5703C11.7306 16.5703 11.4723 16.6773 11.2818 16.8678C11.0914 17.0582 10.9844 17.3166 10.9844 17.5859Z" fill="black"/>
</svg>
