<svg width="25" height="24" viewBox="0 0 25 24" fill="none" xmlns="http://www.w3.org/2000/svg">
<path d="M6.2931 21H12.5V19H6.2931C5.83583 19 5.39729 18.8244 5.07395 18.5118C4.75062 18.1993 4.56897 17.7754 4.56897 17.3333V6.66667C4.56897 6.22464 4.75062 5.80072 5.07395 5.48816C5.39729 5.17559 5.83583 5 6.2931 5H10.7759V9H12.8448V5H17.3276C17.7849 5 18.2234 5.17559 18.5467 5.48816C18.8701 5.80072 19.0517 6.22464 19.0517 6.66667V8H21.1207V6.66667C21.1207 5.69421 20.7211 4.76157 20.0097 4.07394C19.2984 3.38631 18.3336 3 17.3276 3H6.2931C5.28711 3 4.32232 3.38631 3.61097 4.07394C2.89963 4.76157 2.5 5.69421 2.5 6.66667V17.3333C2.5 18.3058 2.89963 19.2384 3.61097 19.9261C4.32232 20.6137 5.28711 21 6.2931 21Z" fill="#052450"/>
<path fill-rule="evenodd" clip-rule="evenodd" d="M13.6702 10.1312C14.6402 9.19353 15.9558 8.66675 17.3276 8.66675C18.6994 8.66675 20.0151 9.19353 20.9851 10.1312C21.9551 11.0689 22.5 12.3407 22.5 13.6667C22.5 16.8201 19.2483 19.4234 18.5966 19.9101L17.3276 20.8667L16.0587 19.9134C15.4069 19.4234 12.1552 16.8201 12.1552 13.6667C12.1552 12.3407 12.7002 11.0689 13.6702 10.1312ZM14.2242 13.6667C14.2242 16.0001 17.3276 18.3334 17.3276 18.3334C17.3276 18.3334 20.4311 16.0001 20.4311 13.6667C20.4311 12.8711 20.1041 12.108 19.5221 11.5454C18.9401 10.9828 18.1507 10.6667 17.3276 10.6667C16.5045 10.6667 15.7152 10.9828 15.1332 11.5454C14.5511 12.108 14.2242 12.8711 14.2242 13.6667ZM18.3622 13.6667C18.3622 14.219 17.899 14.6667 17.3277 14.6667C16.7564 14.6667 16.2932 14.219 16.2932 13.6667C16.2932 13.1145 16.7564 12.6667 17.3277 12.6667C17.899 12.6667 18.3622 13.1145 18.3622 13.6667Z" fill="#052450"/>
</svg>
