<svg width="24" height="26" viewBox="0 0 24 26" fill="none" xmlns="http://www.w3.org/2000/svg">
<path d="M5.00252 2.61343C4.92818 2.77242 4.91953 2.95472 4.97879 3.12018L6.96268 8.64721C7.08653 8.99146 7.4643 9.16949 7.80678 9.04513L13.9512 6.81357C14.2935 6.68901 14.4705 6.30905 14.3468 5.96459L12.3629 0.437558C12.2391 0.0933046 11.8611 -0.084726 11.5188 0.039631L5.37443 2.27101C5.21028 2.33116 5.0765 2.45426 5.00252 2.61343ZM11.3471 1.5122L12.8826 5.79206L7.99177 7.57255L6.44307 3.29269L11.3471 1.5122ZM23.3585 18.3079C23.2367 17.9629 22.86 17.7825 22.517 17.9046L11.7347 21.7573C11.259 21.2289 10.5837 20.9272 9.875 20.9268H9.80912L5.04453 7.69467C4.98122 7.51902 4.84707 7.37836 4.6752 7.30729L0.884211 5.73389C0.552056 5.61285 0.184221 5.77665 0.0496777 6.10517C-0.084658 6.43388 0.062375 6.81073 0.383119 6.95969L3.90229 8.41909L8.5427 21.3168C8.01956 21.6455 7.6344 22.1557 7.46028 22.751C7.28617 23.3462 7.33534 23.9849 7.5983 24.5461C7.86126 25.1075 8.31982 25.552 8.88696 25.796C9.45411 26.0399 10.0906 26.066 10.6756 25.8693C11.2608 25.6727 11.7538 25.267 12.0613 24.7292C12.3688 24.1913 12.4695 23.5587 12.3441 22.9513L22.9545 19.1677C23.1228 19.1096 23.2607 18.9854 23.3369 18.8234C23.4129 18.6617 23.4206 18.4757 23.3582 18.308L23.3585 18.3079ZM9.87547 24.676C9.55638 24.676 9.25033 24.5486 9.02473 24.3217C8.79912 24.0948 8.67233 23.787 8.67233 23.4661C8.67233 23.1451 8.79912 22.8375 9.02473 22.6106C9.25034 22.3837 9.55635 22.2562 9.87547 22.2562C10.1944 22.2562 10.5004 22.3837 10.726 22.6106C10.9516 22.8375 11.0784 23.1451 11.0784 23.4661C11.0784 23.787 10.9516 24.0948 10.726 24.3217C10.5004 24.5486 10.1944 24.676 9.87547 24.676ZM12.7114 9.48268C12.6529 9.31592 12.5305 9.17933 12.3715 9.10363C12.2125 9.02775 12.03 9.01924 11.8645 9.07939L8.50357 10.3026C8.1613 10.4273 7.9841 10.8073 8.10775 11.1517L11.0756 19.4198C11.1996 19.764 11.5774 19.9421 11.9199 19.8177L21.0845 16.4905C21.4267 16.3657 21.6039 15.9858 21.4803 15.6413L18.515 7.37325C18.391 7.029 18.0132 6.85097 17.6707 6.97532L14.3601 8.17189C14.1952 8.2313 14.0605 8.3542 13.9858 8.51337C13.911 8.67273 13.9024 8.8554 13.9617 9.02106L14.6924 11.1199L13.4367 11.5684L12.7114 9.48268ZM16.1409 11.2948L15.4102 9.19877L17.4889 8.44532L20.0188 15.4686L12.1045 18.3476L9.57458 11.3243L11.6851 10.5549L12.4105 12.6405V12.6403C12.4688 12.8098 12.5929 12.9484 12.7544 13.0243C12.916 13.1004 13.1013 13.1072 13.268 13.0436L15.7637 12.1387L15.7635 12.1389C16.0999 12.011 16.2725 11.6356 16.1514 11.2951L16.1409 11.2948Z" fill="#7D8588"/>
</svg>
