<svg width="26" height="26" viewBox="0 0 26 26" fill="none" xmlns="http://www.w3.org/2000/svg">
<path d="M23.4823 15.8853L21.8192 14.4634C21.8979 13.981 21.9386 13.4884 21.9386 12.9958C21.9386 12.5033 21.8979 12.0107 21.8192 11.5283L23.4823 10.1064C23.6077 9.999 23.6975 9.85597 23.7397 9.69632C23.7819 9.53667 23.7745 9.36797 23.7184 9.21263L23.6956 9.14662C23.2377 7.867 22.5522 6.68077 21.672 5.64525L21.6263 5.59193C21.5195 5.46638 21.3772 5.37613 21.2181 5.33307C21.059 5.29001 20.8906 5.29616 20.735 5.35072L18.6708 6.08451C17.9091 5.4599 17.0585 4.96732 16.1393 4.62201L15.7407 2.46381C15.7106 2.30141 15.6319 2.15202 15.5148 2.03546C15.3978 1.91891 15.2481 1.84071 15.0856 1.81127L15.0171 1.79857C13.6942 1.5599 12.3028 1.5599 10.98 1.79857L10.9114 1.81127C10.7489 1.84071 10.5992 1.91891 10.4822 2.03546C10.3652 2.15202 10.2864 2.30141 10.2563 2.46381L9.85516 4.63217C8.94335 4.97755 8.09423 5.46987 7.34149 6.08959L5.26199 5.35072C5.10652 5.29573 4.93798 5.28935 4.7788 5.33244C4.61961 5.37552 4.4773 5.46603 4.37078 5.59193L4.32508 5.64525C3.44592 6.6815 2.76045 7.86753 2.30145 9.14662L2.27859 9.21263C2.16434 9.53002 2.25828 9.88549 2.51473 10.1064L4.19813 11.5435C4.11941 12.0208 4.08133 12.5083 4.08133 12.9933C4.08133 13.4808 4.11941 13.9683 4.19813 14.4431L2.51473 15.8802C2.38929 15.9876 2.29951 16.1306 2.25733 16.2903C2.21515 16.4499 2.22256 16.6186 2.27859 16.774L2.30145 16.84C2.76102 18.1197 3.44148 19.3003 4.32508 20.3413L4.37078 20.3947C4.47756 20.5202 4.61987 20.6105 4.77897 20.6535C4.93806 20.6966 5.10647 20.6904 5.26199 20.6359L7.34149 19.897C8.09813 20.5191 8.94363 21.0117 9.85516 21.3544L10.2563 23.5228C10.2864 23.6852 10.3652 23.8346 10.4822 23.9511C10.5992 24.0677 10.7489 24.1459 10.9114 24.1753L10.98 24.188C12.315 24.428 13.6821 24.428 15.0171 24.188L15.0856 24.1753C15.2481 24.1459 15.3978 24.0677 15.5148 23.9511C15.6319 23.8346 15.7106 23.6852 15.7407 23.5228L16.1393 21.3646C17.0581 21.0202 17.9135 20.526 18.6708 19.9021L20.735 20.6359C20.8905 20.6909 21.059 20.6972 21.2182 20.6542C21.3774 20.6111 21.5197 20.5206 21.6263 20.3947L21.672 20.3413C22.5555 19.2978 23.236 18.1197 23.6956 16.84L23.7184 16.774C23.8327 16.4617 23.7388 16.1062 23.4823 15.8853ZM20.0165 11.8279C20.08 12.2113 20.113 12.6048 20.113 12.9984C20.113 13.3919 20.08 13.7855 20.0165 14.1689L19.8489 15.187L21.7456 16.8095C21.4581 17.4719 21.0951 18.099 20.6639 18.6783L18.3077 17.8429L17.5104 18.498C16.9036 18.9956 16.2282 19.3867 15.497 19.6609L14.5296 20.024L14.0751 22.4869C13.358 22.5681 12.634 22.5681 11.9169 22.4869L11.4624 20.0189L10.5026 19.6507C9.77899 19.3765 9.10613 18.9855 8.50438 18.4904L7.70711 17.8328L5.33563 18.6757C4.90399 18.0943 4.54344 17.4671 4.25398 16.807L6.17098 15.1693L6.00594 14.1536C5.945 13.7753 5.91199 13.3843 5.91199 12.9984C5.91199 12.6099 5.94246 12.2214 6.00594 11.8431L6.17098 10.8275L4.25398 9.18978C4.5409 8.52709 4.90399 7.90248 5.33563 7.32103L7.70711 8.164L8.50438 7.50638C9.10613 7.01127 9.77899 6.62025 10.5026 6.34603L11.4649 5.98295L11.9194 3.51498C12.6329 3.43373 13.3616 3.43373 14.0776 3.51498L14.5321 5.97787L15.4995 6.34095C16.2282 6.61517 16.9061 7.00619 17.513 7.50385L18.3102 8.15892L20.6665 7.32357C21.0981 7.90502 21.4587 8.53217 21.7481 9.19232L19.8514 10.8148L20.0165 11.8279ZM13.0011 8.27572C10.5331 8.27572 8.53231 10.2765 8.53231 12.7445C8.53231 15.2124 10.5331 17.2132 13.0011 17.2132C15.469 17.2132 17.4698 15.2124 17.4698 12.7445C17.4698 10.2765 15.469 8.27572 13.0011 8.27572ZM15.012 14.7554C14.7482 15.0199 14.4348 15.2297 14.0897 15.3726C13.7446 15.5155 13.3746 15.5888 13.0011 15.5882C12.2419 15.5882 11.5284 15.2912 10.9901 14.7554C10.7256 14.4917 10.5159 14.1782 10.3729 13.8331C10.23 13.488 10.1567 13.118 10.1573 12.7445C10.1573 11.9853 10.4544 11.2718 10.9901 10.7335C11.5284 10.1953 12.2419 9.90072 13.0011 9.90072C13.7602 9.90072 14.4737 10.1953 15.012 10.7335C15.2765 10.9973 15.4863 11.3107 15.6292 11.6558C15.7721 12.001 15.8454 12.3709 15.8448 12.7445C15.8448 13.5036 15.5477 14.2171 15.012 14.7554Z" fill="black"/>
</svg>
